<?xml version="1.0" encoding="UTF-8" standalone="no"?>
<!-- Uploaded to: SVG Repo, www.svgrepo.com, Generator: SVG Repo Mixer Tools -->

<svg
   height="800px"
   width="800px"
   version="1.1"
   id="Capa_1"
   viewBox="0 0 18.467 18.467"
   xml:space="preserve"
   sodipodi:docname="icon.svg"
   inkscape:version="1.2 (dc2aeda, 2022-05-15)"
   xmlns:inkscape="http://www.inkscape.org/namespaces/inkscape"
   xmlns:sodipodi="http://sodipodi.sourceforge.net/DTD/sodipodi-0.dtd"
   xmlns="http://www.w3.org/2000/svg"
   xmlns:svg="http://www.w3.org/2000/svg"><defs
   id="defs2806"><rect
     x="-167.47136"
     y="126.45584"
     width="830.08773"
     height="616.62651"
     id="rect2989" /></defs><sodipodi:namedview
   id="namedview2804"
   pagecolor="#ffffff"
   bordercolor="#666666"
   borderopacity="1.0"
   inkscape:showpageshadow="2"
   inkscape:pageopacity="0.0"
   inkscape:pagecheckerboard="0"
   inkscape:deskcolor="#d1d1d1"
   showgrid="false"
   inkscape:zoom="1.0375"
   inkscape:cx="367.71084"
   inkscape:cy="400"
   inkscape:window-width="1920"
   inkscape:window-height="1015"
   inkscape:window-x="0"
   inkscape:window-y="0"
   inkscape:window-maximized="1"
   inkscape:current-layer="Capa_1" />
<g
   id="g2801"
   transform="matrix(0.65024633,0,0,0.65024633,6.3960935,3.0695118)">
	<g
   id="g2799">
		<path
   style="fill:#030104"
   d="M 17.109,5.454 C 16.867,5.165 16.436,5.127 16.147,5.368 L 14.253,6.959 13.382,4.801 C 13.351,4.72 13.304,4.652 13.25,4.592 13.072,4.196 12.763,3.856 12.337,3.659 12.152,3.575 11.961,3.53 11.77,3.508 11.728,3.486 11.69,3.457 11.642,3.442 L 8.309,2.513 C 8.122,2.462 7.934,2.495 7.78,2.585 7.597,2.647 7.44,2.78 7.365,2.973 L 6.11,6.2 C 5.974,6.551 6.148,6.947 6.5,7.085 6.85,7.221 7.247,7.046 7.384,6.694 L 8.444,3.969 9.962,4.391 C 9.925,4.451 9.885,4.507 9.855,4.571 L 7.909,8.789 C 7.881,8.851 7.866,8.914 7.846,8.978 l -2.365,3.965 -3.958,1.324 c -0.448,0.335 -0.543,0.966 -0.212,1.414 0.333,0.449 0.966,0.544 1.413,0.213 l 4.05,-1.395 C 6.898,14.409 6.988,14.291 7.056,14.164 7.107,14.11 7.165,14.067 7.204,14 l 1.41,-2.364 2.503,2.133 -2.678,3.018 c -0.369,0.416 -0.332,1.057 0.086,1.425 0.417,0.371 1.056,0.332 1.427,-0.086 l 3.342,-3.765 c 0.104,-0.116 0.166,-0.25 0.208,-0.39 0.025,-0.076 0.025,-0.155 0.031,-0.234 0,-0.04 0.015,-0.076 0.012,-0.113 -0.009,-0.276 -0.121,-0.544 -0.347,-0.735 l -2.303,-1.964 c 0.166,-0.158 0.307,-0.346 0.409,-0.567 L 12.796,7.127 13.274,8.4 c 0.02,0.113 0.058,0.224 0.138,0.317 0.072,0.086 0.164,0.143 0.262,0.183 0.01,0.005 0.022,0.006 0.034,0.009 0.062,0.022 0.125,0.043 0.19,0.046 0.077,0.007 0.155,-0.003 0.234,-0.025 0.002,-10e-4 0.003,-10e-4 0.003,-10e-4 0.021,-0.005 0.042,-10e-4 0.063,-0.01 0.111,-0.042 0.196,-0.113 0.269,-0.196 L 17.185,6.416 C 17.474,6.173 17.352,5.743 17.109,5.454 Z"
   id="path2795" />
		<circle
   style="fill:#030104"
   cx="13.671"
   cy="1.905"
   r="1.905"
   id="circle2797" />
	</g>
</g>
<path
   d="M 4.855362,3.0289 V 6.1020777 H 8.0772168 1.6676007 v 3.016616 H 8.0772168 V 12.173019 H 1.7016944 4.8894557 v 2.997762"
   style="fill:none;stroke:#000000;stroke-width:1.79275px;stroke-linecap:round;stroke-linejoin:round"
   id="path3024" /></svg>
